<mxfile host="app.diagrams.net" modified="2021-01-06T18:42:48.361Z" agent="5.0 (Windows NT 10.0; Win64; x64) AppleWebKit/537.36 (KHTML, like Gecko) Chrome/87.0.4280.88 Safari/537.36" etag="BB66GF2lqCGAaHhFVyXO" version="14.1.8" type="github">
  <diagram id="06IiAXgA8cgDI_Lxp7t8" name="Page-1">
    <mxGraphModel dx="1422" dy="762" grid="1" gridSize="10" guides="1" tooltips="1" connect="1" arrows="1" fold="1" page="1" pageScale="1" pageWidth="827" pageHeight="1169" math="0" shadow="0">
      <root>
        <mxCell id="0" />
        <mxCell id="1" parent="0" />
        <mxCell id="MXvkSPdAwNo0PrRt8lIc-1" value="" style="whiteSpace=wrap;html=1;aspect=fixed;" parent="1" vertex="1">
          <mxGeometry x="190" y="210" width="470" height="470" as="geometry" />
        </mxCell>
        <mxCell id="MXvkSPdAwNo0PrRt8lIc-2" value="Agent de voyage" style="shape=umlActor;verticalLabelPosition=bottom;verticalAlign=top;html=1;" parent="1" vertex="1">
          <mxGeometry x="80" y="390" width="30" height="60" as="geometry" />
        </mxCell>
        <mxCell id="MXvkSPdAwNo0PrRt8lIc-3" value="Organiser un voyage" style="ellipse;whiteSpace=wrap;html=1;" parent="1" vertex="1">
          <mxGeometry x="180" y="410" width="140" height="70" as="geometry" />
        </mxCell>
        <mxCell id="MXvkSPdAwNo0PrRt8lIc-4" value="Réserver une chambre d&#39;hôtel" style="ellipse;whiteSpace=wrap;html=1;" parent="1" vertex="1">
          <mxGeometry x="320" y="240" width="140" height="70" as="geometry" />
        </mxCell>
        <mxCell id="MXvkSPdAwNo0PrRt8lIc-5" value="Réserver un taxi" style="ellipse;whiteSpace=wrap;html=1;" parent="1" vertex="1">
          <mxGeometry x="390" y="370" width="140" height="70" as="geometry" />
        </mxCell>
        <mxCell id="MXvkSPdAwNo0PrRt8lIc-6" value="Réserver un billet de train" style="ellipse;whiteSpace=wrap;html=1;" parent="1" vertex="1">
          <mxGeometry x="420" y="490" width="140" height="70" as="geometry" />
        </mxCell>
        <mxCell id="MXvkSPdAwNo0PrRt8lIc-7" value="Etablir une facture détaillée" style="ellipse;whiteSpace=wrap;html=1;" parent="1" vertex="1">
          <mxGeometry x="280" y="585" width="140" height="70" as="geometry" />
        </mxCell>
        <mxCell id="fdadtWdO-n5RL9nwN0nz-4" value="" style="line;strokeWidth=1;fillColor=none;align=left;verticalAlign=middle;spacingTop=-1;spacingLeft=3;spacingRight=3;rotatable=0;labelPosition=right;points=[];portConstraint=eastwest;" vertex="1" parent="1">
          <mxGeometry x="110" y="440" width="70" height="8" as="geometry" />
        </mxCell>
        <mxCell id="fdadtWdO-n5RL9nwN0nz-6" value="Include" style="endArrow=block;endSize=16;endFill=0;html=1;exitX=0;exitY=0;exitDx=0;exitDy=0;" edge="1" parent="1" source="MXvkSPdAwNo0PrRt8lIc-6" target="MXvkSPdAwNo0PrRt8lIc-3">
          <mxGeometry width="160" relative="1" as="geometry">
            <mxPoint x="350" y="490" as="sourcePoint" />
            <mxPoint x="510" y="490" as="targetPoint" />
          </mxGeometry>
        </mxCell>
        <mxCell id="fdadtWdO-n5RL9nwN0nz-7" value="Include" style="endArrow=block;endSize=16;endFill=0;html=1;" edge="1" parent="1" source="MXvkSPdAwNo0PrRt8lIc-7" target="MXvkSPdAwNo0PrRt8lIc-3">
          <mxGeometry width="160" relative="1" as="geometry">
            <mxPoint x="450.5025253169417" y="510.25126265847075" as="sourcePoint" />
            <mxPoint x="320.5798399836824" y="472.53626946896065" as="targetPoint" />
          </mxGeometry>
        </mxCell>
        <mxCell id="fdadtWdO-n5RL9nwN0nz-8" value="Include" style="endArrow=block;endSize=16;endFill=0;html=1;exitX=0;exitY=0.5;exitDx=0;exitDy=0;" edge="1" parent="1" source="MXvkSPdAwNo0PrRt8lIc-5" target="MXvkSPdAwNo0PrRt8lIc-3">
          <mxGeometry width="160" relative="1" as="geometry">
            <mxPoint x="460.5025253169417" y="520.2512626584708" as="sourcePoint" />
            <mxPoint x="330.5798399836824" y="482.53626946896065" as="targetPoint" />
          </mxGeometry>
        </mxCell>
        <mxCell id="fdadtWdO-n5RL9nwN0nz-9" value="Include" style="endArrow=block;endSize=16;endFill=0;html=1;exitX=0.079;exitY=0.743;exitDx=0;exitDy=0;exitPerimeter=0;" edge="1" parent="1" source="MXvkSPdAwNo0PrRt8lIc-4" target="MXvkSPdAwNo0PrRt8lIc-3">
          <mxGeometry width="160" relative="1" as="geometry">
            <mxPoint x="420.0025253169417" y="507.71126265847073" as="sourcePoint" />
            <mxPoint x="290.0798399836824" y="469.99626946896063" as="targetPoint" />
          </mxGeometry>
        </mxCell>
      </root>
    </mxGraphModel>
  </diagram>
</mxfile>
